<?xml version="1.0" standalone="no"?>
<!DOCTYPE svg PUBLIC "-//W3C//DTD SVG 20010904//EN"
 "http://www.w3.org/TR/2001/REC-SVG-20010904/DTD/svg10.dtd">
<svg version="1.0" xmlns="http://www.w3.org/2000/svg"
 width="256.000000pt" height="256.000000pt" viewBox="0 0 256.000000 256.000000"
 preserveAspectRatio="xMidYMid meet">
<metadata>
Created by potrace 1.11, written by Peter Selinger 2001-2013
</metadata>
<g transform="translate(0.000000,256.000000) scale(0.100000,-0.100000)"
fill="#000000" stroke="none">
<path d="M1122 2549 c-472 -64 -865 -373 -1036 -815 -145 -375 -97 -816 125
-1153 438 -665 1368 -775 1944 -230 515 488 539 1291 54 1804 -239 252 -546
389 -894 400 -66 2 -153 -1 -193 -6z m305 -859 c68 -146 128 -269 132 -273 4
-4 144 44 311 108 167 63 305 113 307 111 2 -2 -68 -178 -155 -392 l-158 -389
-600 -3 -601 -2 -146 392 c-80 216 -145 394 -143 395 1 2 127 -46 278 -106
152 -60 284 -112 295 -115 18 -6 34 23 143 256 68 145 134 285 148 313 l24 49
21 -39 c11 -22 76 -159 144 -305z m433 -925 l0 -25 -595 0 -595 0 0 25 0 25
595 0 595 0 0 -25z"/>
<path d="M1159 1357 c-18 -12 -40 -34 -47 -47 -20 -39 -8 -98 27 -134 29 -28
38 -31 111 -34 91 -5 110 -17 92 -57 -11 -24 -15 -25 -117 -25 l-105 0 0 -40
0 -40 109 0 c96 0 112 3 142 23 18 12 40 34 47 47 20 39 8 98 -27 134 -29 28
-38 31 -111 34 -91 5 -110 17 -92 57 11 24 15 25 117 25 l105 0 0 40 0 40
-109 0 c-96 0 -112 -3 -142 -23z"/>
</g>
</svg>
